<svg width="1920" height="1080" viewBox="0 0 1920 1080" xmlns="http://www.w3.org/2000/svg">
  <rect width="1920" height="1080" fill="#FFFFFF"/>
  <text x="64" y="96" font-family="Inter, Helvetica, Arial" font-size="28" font-weight="600" fill="#0E0E0E">tokenX — Flow of Participation</text>

  <!-- Left boxes -->
  <g fill="#F5F5F5" stroke="#E6E6E6" stroke-width="2">
    <rect x="200" y="320" rx="6" ry="6" width="260" height="80"/>
    <rect x="200" y="440" rx="6" ry="6" width="260" height="80"/>
    <rect x="200" y="560" rx="6" ry="6" width="260" height="80"/>
  </g>
  <g font-family="Inter, Helvetica, Arial" font-size="16" fill="#0E0E0E">
    <text x="330" y="368" text-anchor="middle">Users</text>
    <text x="330" y="488" text-anchor="middle">Builders</text>
    <text x="330" y="608" text-anchor="middle">Projects</text>
  </g>

  <!-- Center -->
  <rect x="820" y="430" rx="80" ry="80" width="280" height="220" fill="#0E0E0E"/>
  <text x="960" y="548" text-anchor="middle" font-family="Inter, Helvetica, Arial" font-size="24" font-weight="700" fill="#FFFFFF">tokenX</text>

  <!-- Right boxes -->
  <g fill="#F5F5F5" stroke="#E6E6E6" stroke-width="2">
    <rect x="1380" y="360" rx="6" ry="6" width="260" height="80"/>
    <rect x="1380" y="480" rx="6" ry="6" width="260" height="80"/>
    <rect x="1380" y="600" rx="6" ry="6" width="260" height="80"/>
  </g>
  <g font-family="Inter, Helvetica, Arial" font-size="16" fill="#0E0E0E">
    <text x="1510" y="408" text-anchor="middle">Protocol Actions</text>
    <text x="1510" y="528" text-anchor="middle">Foundation Treasury</text>
    <text x="1510" y="648" text-anchor="middle">Burn / Grants</text>
  </g>

  <!-- Arrows -->
  <g stroke="#0E0E0E" stroke-width="2" fill="none">
    <path d="M460 360 L820 480"/>
    <path d="M460 480 L820 540"/>
    <path d="M460 600 L820 600"/>
    <path d="M1100 480 L1380 400"/>
    <path d="M1100 540 L1380 520"/>
    <path d="M1100 600 L1380 640"/>
  </g>
</svg>
